<svg xmlns="http://www.w3.org/2000/svg" version="1.1" xmlns:xlink="http://www.w3.org/1999/xlink" viewBox="0 0 200 200" width="200" height="200"><metadata><rdf:RDF xmlns:rdf="http://www.w3.org/1999/02/22-rdf-syntax-ns#" xmlns:dc="http://purl.org/dc/elements/1.1/"><rdf:Description><dc:creator>RealFaviconGenerator</dc:creator><dc:source>https://realfavicongenerator.net</dc:source></rdf:Description></rdf:RDF></metadata><rect width="200" height="200" fill="url('#gradient')"></rect><defs><linearGradient id="gradient" gradientTransform="rotate(45 0.5 0.5)"><stop offset="0%" stop-color="#c1c2c1"></stop><stop offset="100%" stop-color="#cda55d"></stop></linearGradient></defs><g><g fill="#251a2c" transform="matrix(1.7454545454545454,0,0,1.7454545454545454,8.907226252555851,112.41443937475032)" stroke="#574c65" stroke-width="0.2"><path d="M8.41-3.78L8.41-3.78Q8.41-4.53 7.88-4.95Q7.34-5.37 6.01-5.82Q4.67-6.27 3.82-6.69L3.82-6.69Q1.05-8.05 1.05-10.42L1.05-10.42Q1.05-11.60 1.74-12.50Q2.43-13.41 3.69-13.91Q4.95-14.41 6.52-14.41L6.52-14.41Q8.06-14.41 9.27-13.87Q10.49-13.32 11.16-12.31Q11.84-11.30 11.84-10L11.84-10L8.42-10Q8.42-10.87 7.89-11.35Q7.35-11.83 6.45-11.83L6.45-11.83Q5.53-11.83 5.00-11.42Q4.46-11.02 4.46-10.39L4.46-10.39Q4.46-9.84 5.05-9.40Q5.63-8.96 7.11-8.48Q8.58-8.01 9.53-7.46L9.53-7.46Q11.84-6.13 11.84-3.80L11.84-3.80Q11.84-1.93 10.43-0.87Q9.02 0.20 6.57 0.20L6.57 0.20Q4.84 0.20 3.44-0.42Q2.04-1.04 1.33-2.12Q0.63-3.20 0.63-4.61L0.63-4.61L4.06-4.61Q4.06-3.47 4.65-2.92Q5.24-2.38 6.57-2.38L6.57-2.38Q7.42-2.38 7.92-2.75Q8.41-3.12 8.41-3.78ZM18.55 0.20L18.55 0.20Q16.12 0.20 14.62-1.25Q13.12-2.71 13.12-5.03L13.12-5.03L13.12-5.30Q13.12-6.92 13.72-8.16Q14.32-9.40 15.47-10.08Q16.62-10.76 18.20-10.76L18.20-10.76Q20.43-10.76 21.72-9.38Q23.01-8.00 23.01-5.53L23.01-5.53L23.01-4.25L16.46-4.25Q16.64-3.36 17.24-2.85Q17.83-2.34 18.78-2.34L18.78-2.34Q20.34-2.34 21.22-3.44L21.22-3.44L22.72-1.66Q22.11-0.81 20.98-0.31Q19.85 0.20 18.55 0.20ZM18.18-8.22L18.18-8.22Q16.74-8.22 16.46-6.31L16.46-6.31L19.79-6.31L19.79-6.56Q19.80-7.35 19.38-7.79Q18.96-8.22 18.18-8.22ZM24.27-10.57L27.35-10.57L27.46-9.33Q28.55-10.76 30.48-10.76L30.48-10.76Q32.13-10.76 32.94-9.78Q33.76-8.79 33.79-6.81L33.79-6.81L33.79 0L30.49 0L30.49-6.67Q30.49-7.47 30.17-7.85Q29.84-8.22 28.99-8.22L28.99-8.22Q28.03-8.22 27.56-7.46L27.56-7.46L27.56 0L24.27 0L24.27-10.57ZM41.14-2.97L41.14-2.97Q41.14-3.39 40.70-3.64Q40.26-3.90 39.03-4.17Q37.80-4.44 37.00-4.89Q36.20-5.33 35.78-5.97Q35.36-6.60 35.36-7.42L35.36-7.42Q35.36-8.88 36.56-9.82Q37.76-10.76 39.71-10.76L39.71-10.76Q41.80-10.76 43.07-9.81Q44.34-8.87 44.34-7.32L44.34-7.32L41.04-7.32Q41.04-8.59 39.70-8.59L39.70-8.59Q39.18-8.59 38.83-8.31Q38.48-8.02 38.48-7.59L38.48-7.59Q38.48-7.15 38.91-6.88Q39.34-6.60 40.28-6.43Q41.22-6.25 41.93-6.01L41.93-6.01Q44.32-5.19 44.32-3.07L44.32-3.07Q44.32-1.62 43.03-0.71Q41.75 0.20 39.71 0.20L39.71 0.20Q38.35 0.20 37.29-0.29Q36.22-0.78 35.63-1.62Q35.03-2.46 35.03-3.39L35.03-3.39L38.11-3.39Q38.13-2.66 38.59-2.32Q39.06-1.98 39.79-1.98L39.79-1.98Q40.47-1.98 40.81-2.26Q41.14-2.53 41.14-2.97ZM45.45-4.82L45.44-5.38Q45.44-6.96 46.05-8.20Q46.67-9.43 47.82-10.10Q48.97-10.76 50.53-10.76L50.53-10.76Q52.90-10.76 54.27-9.29Q55.63-7.82 55.63-5.29L55.63-5.29L55.63-5.18Q55.63-2.71 54.26-1.25Q52.89 0.20 50.55 0.20L50.55 0.20Q48.29 0.20 46.92-1.16Q45.56-2.51 45.45-4.82L45.45-4.82ZM48.74-5.77L48.73-5.18Q48.73-3.71 49.19-3.03Q49.65-2.34 50.55-2.34L50.55-2.34Q52.30-2.34 52.34-5.05L52.34-5.05L52.34-5.38Q52.34-8.22 50.53-8.22L50.53-8.22Q48.88-8.22 48.74-5.77L48.74-5.77ZM63.54-10.64L63.48-7.59L62.39-7.67Q60.84-7.67 60.40-6.69L60.40-6.69L60.40 0L57.11 0L57.11-10.57L60.20-10.57L60.30-9.21Q61.13-10.76 62.62-10.76L62.62-10.76Q63.14-10.76 63.54-10.64L63.54-10.64ZM72.91-4.81L76.32-4.81Q76.25-3.33 75.52-2.19Q74.79-1.05 73.46-0.43Q72.14 0.20 70.44 0.20L70.44 0.20Q67.64 0.20 66.03-1.63Q64.41-3.46 64.41-6.79L64.41-6.79L64.41-7.49Q64.41-9.58 65.14-11.15Q65.87-12.71 67.24-13.57Q68.60-14.42 70.40-14.42L70.40-14.42Q72.99-14.42 74.56-13.06Q76.13-11.70 76.35-9.31L76.35-9.31L72.93-9.31Q72.89-10.61 72.28-11.17Q71.66-11.74 70.40-11.74L70.40-11.74Q69.12-11.74 68.53-10.78Q67.93-9.82 67.90-7.72L67.90-7.72L67.90-6.72Q67.90-4.44 68.47-3.47Q69.04-2.49 70.44-2.49L70.44-2.49Q71.62-2.49 72.25-3.05Q72.87-3.60 72.91-4.81L72.91-4.81ZM87.03 0L83.74 0Q83.56-0.32 83.43-0.95L83.43-0.95Q82.52 0.20 80.89 0.20L80.89 0.20Q79.39 0.20 78.35-0.71Q77.30-1.61 77.30-2.98L77.30-2.98Q77.30-4.70 78.57-5.58Q79.84-6.46 82.27-6.46L82.27-6.46L83.28-6.46L83.28-7.01Q83.28-8.47 82.02-8.47L82.02-8.47Q80.85-8.47 80.85-7.31L80.85-7.31L77.56-7.31Q77.56-8.85 78.86-9.80Q80.17-10.76 82.19-10.76Q84.21-10.76 85.38-9.78Q86.55-8.79 86.58-7.07L86.58-7.07L86.58-2.39Q86.60-0.94 87.03-0.17L87.03-0.17L87.03 0ZM81.68-2.15L81.68-2.15Q82.29-2.15 82.70-2.41Q83.11-2.68 83.28-3.01L83.28-3.01L83.28-4.70L82.32-4.70Q80.61-4.70 80.61-3.15L80.61-3.15Q80.61-2.71 80.91-2.43Q81.21-2.15 81.68-2.15ZM88.43-10.57L91.51-10.57L91.62-9.33Q92.74-10.76 94.64-10.76L94.64-10.76Q96.64-10.76 97.34-9.17L97.34-9.17Q98.42-10.76 100.45-10.76L100.45-10.76Q103.66-10.76 103.75-6.88L103.75-6.88L103.75 0L100.45 0L100.45-6.67Q100.45-7.48 100.18-7.85Q99.90-8.22 99.18-8.22L99.18-8.22Q98.20-8.22 97.72-7.35L97.72-7.35L97.73-7.22L97.73 0L94.43 0L94.43-6.65Q94.43-7.48 94.17-7.85Q93.91-8.22 93.16-8.22L93.16-8.22Q92.22-8.22 91.72-7.35L91.72-7.35L91.72 0L88.43 0L88.43-10.57Z"></path></g></g></svg>